<?xml version="1.0" encoding="utf-8" ?>
<svg baseProfile="tiny" height="750px" version="1.2" width="1180px" xmlns="http://www.w3.org/2000/svg" xmlns:ev="http://www.w3.org/2001/xml-events" xmlns:xlink="http://www.w3.org/1999/xlink"><defs /><text font-size="13px" font-weight="bold" x="0" y="15">March 2025</text><text font-size="9px" font-weight="bold" x="3" y="40">M</text><text font-size="9px" font-weight="bold" x="56" y="40">T</text><text font-size="9px" font-weight="bold" x="109" y="40">W</text><text font-size="9px" font-weight="bold" x="162" y="40">Th</text><text font-size="9px" font-weight="bold" x="215" y="40">F</text><text font-size="9px" font-weight="bold" x="268" y="40">Sa</text><text font-size="9px" font-weight="bold" x="321" y="40">Su</text><rect fill="#e0f7fa" height="40" stroke="gray" stroke-width="0.8" width="53" x="265" y="70" /><text font-size="8px" x="268" y="83">1</text><rect fill="#e0f7fa" height="40" stroke="gray" stroke-width="0.8" width="53" x="318" y="70" /><text font-size="8px" x="321" y="83">2</text><rect fill="#e0f7fa" height="40" stroke="gray" stroke-width="0.8" width="53" x="0" y="110" /><text font-size="8px" x="3" y="123">3</text><rect fill="#e0f7fa" height="40" stroke="gray" stroke-width="0.8" width="53" x="53" y="110" /><text font-size="8px" x="56" y="123">4</text><rect fill="#e0f7fa" height="40" stroke="gray" stroke-width="0.8" width="53" x="106" y="110" /><text font-size="8px" x="109" y="123">5</text><rect fill="#e0f7fa" height="40" stroke="gray" stroke-width="0.8" width="53" x="159" y="110" /><text font-size="8px" x="162" y="123">6</text><rect fill="#e0f7fa" height="40" stroke="gray" stroke-width="0.8" width="53" x="212" y="110" /><text font-size="8px" x="215" y="123">7</text><rect fill="#e0f7fa" height="40" stroke="gray" stroke-width="0.8" width="53" x="265" y="110" /><text font-size="8px" x="268" y="123">8</text><rect fill="#e0f7fa" height="40" stroke="gray" stroke-width="0.8" width="53" x="318" y="110" /><text font-size="8px" x="321" y="123">9</text><rect fill="#e0f7fa" height="40" stroke="gray" stroke-width="0.8" width="53" x="0" y="150" /><text font-size="8px" x="3" y="163">10</text><rect fill="#e0f7fa" height="40" stroke="gray" stroke-width="0.8" width="53" x="53" y="150" /><text font-size="8px" x="56" y="163">11</text><rect fill="#e0f7fa" height="40" stroke="gray" stroke-width="0.8" width="53" x="106" y="150" /><text font-size="8px" x="109" y="163">12
CPI</text><rect fill="#e0f7fa" height="40" stroke="gray" stroke-width="0.8" width="53" x="159" y="150" /><text font-size="8px" x="162" y="163">13
PPI</text><rect fill="#e0f7fa" height="40" stroke="gray" stroke-width="0.8" width="53" x="212" y="150" /><text font-size="8px" x="215" y="163">14</text><rect fill="#e0f7fa" height="40" stroke="gray" stroke-width="0.8" width="53" x="265" y="150" /><text font-size="8px" x="268" y="163">15</text><rect fill="#e0f7fa" height="40" stroke="gray" stroke-width="0.8" width="53" x="318" y="150" /><text font-size="8px" x="321" y="163">16</text><rect fill="#e0f7fa" height="40" stroke="gray" stroke-width="0.8" width="53" x="0" y="190" /><text font-size="8px" x="3" y="203">17</text><rect fill="#e0f7fa" height="40" stroke="gray" stroke-width="0.8" width="53" x="53" y="190" /><text font-size="8px" x="56" y="203">18</text><rect fill="#e0f7fa" height="40" stroke="gray" stroke-width="0.8" width="53" x="106" y="190" /><text font-size="8px" x="109" y="203">19</text><rect fill="#e0f7fa" height="40" stroke="gray" stroke-width="0.8" width="53" x="159" y="190" /><text font-size="8px" x="162" y="203">20</text><rect fill="#e0f7fa" height="40" stroke="gray" stroke-width="0.8" width="53" x="212" y="190" /><text font-size="8px" x="215" y="203">21</text><rect fill="#e0f7fa" height="40" stroke="gray" stroke-width="0.8" width="53" x="265" y="190" /><text font-size="8px" x="268" y="203">22</text><rect fill="#e0f7fa" height="40" stroke="gray" stroke-width="0.8" width="53" x="318" y="190" /><text font-size="8px" x="321" y="203">23</text><rect fill="#e0f7fa" height="40" stroke="gray" stroke-width="0.8" width="53" x="0" y="230" /><text font-size="8px" x="3" y="243">24</text><rect fill="#e0f7fa" height="40" stroke="gray" stroke-width="0.8" width="53" x="53" y="230" /><text font-size="8px" x="56" y="243">25</text><rect fill="#e0f7fa" height="40" stroke="gray" stroke-width="0.8" width="53" x="106" y="230" /><text font-size="8px" x="109" y="243">26</text><rect fill="#e0f7fa" height="40" stroke="gray" stroke-width="0.8" width="53" x="159" y="230" /><text font-size="8px" x="162" y="243">27</text><rect fill="#e0f7fa" height="40" stroke="gray" stroke-width="0.8" width="53" x="212" y="230" /><text font-size="8px" x="215" y="243">28</text><rect fill="#e0f7fa" height="40" stroke="gray" stroke-width="0.8" width="53" x="265" y="230" /><text font-size="8px" x="268" y="243">29</text><rect fill="#e0f7fa" height="40" stroke="gray" stroke-width="0.8" width="53" x="318" y="230" /><text font-size="8px" x="321" y="243">30</text><rect fill="#e0f7fa" height="40" stroke="gray" stroke-width="0.8" width="53" x="0" y="270" /><text font-size="8px" x="3" y="283">31</text><text font-size="13px" font-weight="bold" x="396" y="15">April 2025</text><text font-size="9px" font-weight="bold" x="399" y="40">M</text><text font-size="9px" font-weight="bold" x="452" y="40">T</text><text font-size="9px" font-weight="bold" x="505" y="40">W</text><text font-size="9px" font-weight="bold" x="558" y="40">Th</text><text font-size="9px" font-weight="bold" x="611" y="40">F</text><text font-size="9px" font-weight="bold" x="664" y="40">Sa</text><text font-size="9px" font-weight="bold" x="717" y="40">Su</text><rect fill="#e0f7fa" height="40" stroke="gray" stroke-width="0.8" width="53" x="449" y="70" /><text font-size="8px" x="452" y="83">1</text><rect fill="#e0f7fa" height="40" stroke="gray" stroke-width="0.8" width="53" x="502" y="70" /><text font-size="8px" x="505" y="83">2</text><rect fill="#e0f7fa" height="40" stroke="gray" stroke-width="0.8" width="53" x="555" y="70" /><text font-size="8px" x="558" y="83">3</text><rect fill="#e0f7fa" height="40" stroke="gray" stroke-width="0.8" width="53" x="608" y="70" /><text font-size="8px" x="611" y="83">4</text><rect fill="#e0f7fa" height="40" stroke="gray" stroke-width="0.8" width="53" x="661" y="70" /><text font-size="8px" x="664" y="83">5</text><rect fill="#e0f7fa" height="40" stroke="gray" stroke-width="0.8" width="53" x="714" y="70" /><text font-size="8px" x="717" y="83">6</text><rect fill="#e0f7fa" height="40" stroke="gray" stroke-width="0.8" width="53" x="396" y="110" /><text font-size="8px" x="399" y="123">7</text><rect fill="#e0f7fa" height="40" stroke="gray" stroke-width="0.8" width="53" x="449" y="110" /><text font-size="8px" x="452" y="123">8</text><rect fill="#e0f7fa" height="40" stroke="gray" stroke-width="0.8" width="53" x="502" y="110" /><text font-size="8px" x="505" y="123">9</text><rect fill="#e0f7fa" height="40" stroke="gray" stroke-width="0.8" width="53" x="555" y="110" /><text font-size="8px" x="558" y="123">10
CPI</text><rect fill="#e0f7fa" height="40" stroke="gray" stroke-width="0.8" width="53" x="608" y="110" /><text font-size="8px" x="611" y="123">11
PPI</text><rect fill="#e0f7fa" height="40" stroke="gray" stroke-width="0.8" width="53" x="661" y="110" /><text font-size="8px" x="664" y="123">12</text><rect fill="#e0f7fa" height="40" stroke="gray" stroke-width="0.8" width="53" x="714" y="110" /><text font-size="8px" x="717" y="123">13</text><rect fill="#e0f7fa" height="40" stroke="gray" stroke-width="0.8" width="53" x="396" y="150" /><text font-size="8px" x="399" y="163">14</text><rect fill="#e0f7fa" height="40" stroke="gray" stroke-width="0.8" width="53" x="449" y="150" /><text font-size="8px" x="452" y="163">15</text><rect fill="#e0f7fa" height="40" stroke="gray" stroke-width="0.8" width="53" x="502" y="150" /><text font-size="8px" x="505" y="163">16</text><rect fill="#e0f7fa" height="40" stroke="gray" stroke-width="0.8" width="53" x="555" y="150" /><text font-size="8px" x="558" y="163">17</text><rect fill="#e0f7fa" height="40" stroke="gray" stroke-width="0.8" width="53" x="608" y="150" /><text font-size="8px" x="611" y="163">18</text><rect fill="#e0f7fa" height="40" stroke="gray" stroke-width="0.8" width="53" x="661" y="150" /><text font-size="8px" x="664" y="163">19</text><rect fill="#e0f7fa" height="40" stroke="gray" stroke-width="0.8" width="53" x="714" y="150" /><text font-size="8px" x="717" y="163">20</text><rect fill="#e0f7fa" height="40" stroke="gray" stroke-width="0.8" width="53" x="396" y="190" /><text font-size="8px" x="399" y="203">21</text><rect fill="#e0f7fa" height="40" stroke="gray" stroke-width="0.8" width="53" x="449" y="190" /><text font-size="8px" x="452" y="203">22</text><rect fill="#e0f7fa" height="40" stroke="gray" stroke-width="0.8" width="53" x="502" y="190" /><text font-size="8px" x="505" y="203">23</text><rect fill="#e0f7fa" height="40" stroke="gray" stroke-width="0.8" width="53" x="555" y="190" /><text font-size="8px" x="558" y="203">24</text><rect fill="#e0f7fa" height="40" stroke="gray" stroke-width="0.8" width="53" x="608" y="190" /><text font-size="8px" x="611" y="203">25</text><rect fill="#e0f7fa" height="40" stroke="gray" stroke-width="0.8" width="53" x="661" y="190" /><text font-size="8px" x="664" y="203">26</text><rect fill="#e0f7fa" height="40" stroke="gray" stroke-width="0.8" width="53" x="714" y="190" /><text font-size="8px" x="717" y="203">27</text><rect fill="#e0f7fa" height="40" stroke="gray" stroke-width="0.8" width="53" x="396" y="230" /><text font-size="8px" x="399" y="243">28</text><rect fill="#e0f7fa" height="40" stroke="gray" stroke-width="0.8" width="53" x="449" y="230" /><text font-size="8px" x="452" y="243">29</text><rect fill="#e0f7fa" height="40" stroke="gray" stroke-width="0.8" width="53" x="502" y="230" /><text font-size="8px" x="505" y="243">30</text><text font-size="13px" font-weight="bold" x="792" y="15">May 2025</text><text font-size="9px" font-weight="bold" x="795" y="40">M</text><text font-size="9px" font-weight="bold" x="848" y="40">T</text><text font-size="9px" font-weight="bold" x="901" y="40">W</text><text font-size="9px" font-weight="bold" x="954" y="40">Th</text><text font-size="9px" font-weight="bold" x="1007" y="40">F</text><text font-size="9px" font-weight="bold" x="1060" y="40">Sa</text><text font-size="9px" font-weight="bold" x="1113" y="40">Su</text><rect fill="#e0f7fa" height="40" stroke="gray" stroke-width="0.8" width="53" x="951" y="70" /><text font-size="8px" x="954" y="83">1</text><rect fill="#e0f7fa" height="40" stroke="gray" stroke-width="0.8" width="53" x="1004" y="70" /><text font-size="8px" x="1007" y="83">2</text><rect fill="#e0f7fa" height="40" stroke="gray" stroke-width="0.8" width="53" x="1057" y="70" /><text font-size="8px" x="1060" y="83">3</text><rect fill="#e0f7fa" height="40" stroke="gray" stroke-width="0.8" width="53" x="1110" y="70" /><text font-size="8px" x="1113" y="83">4</text><rect fill="#e0f7fa" height="40" stroke="gray" stroke-width="0.8" width="53" x="792" y="110" /><text font-size="8px" x="795" y="123">5</text><rect fill="#e0f7fa" height="40" stroke="gray" stroke-width="0.8" width="53" x="845" y="110" /><text font-size="8px" x="848" y="123">6</text><rect fill="#e0f7fa" height="40" stroke="gray" stroke-width="0.8" width="53" x="898" y="110" /><text font-size="8px" x="901" y="123">7</text><rect fill="#e0f7fa" height="40" stroke="gray" stroke-width="0.8" width="53" x="951" y="110" /><text font-size="8px" x="954" y="123">8</text><rect fill="#e0f7fa" height="40" stroke="gray" stroke-width="0.8" width="53" x="1004" y="110" /><text font-size="8px" x="1007" y="123">9</text><rect fill="#e0f7fa" height="40" stroke="gray" stroke-width="0.8" width="53" x="1057" y="110" /><text font-size="8px" x="1060" y="123">10</text><rect fill="#e0f7fa" height="40" stroke="gray" stroke-width="0.8" width="53" x="1110" y="110" /><text font-size="8px" x="1113" y="123">11</text><rect fill="#e0f7fa" height="40" stroke="gray" stroke-width="0.8" width="53" x="792" y="150" /><text font-size="8px" x="795" y="163">12</text><rect fill="#e0f7fa" height="40" stroke="gray" stroke-width="0.8" width="53" x="845" y="150" /><text font-size="8px" x="848" y="163">13
CPI</text><rect fill="#e0f7fa" height="40" stroke="gray" stroke-width="0.8" width="53" x="898" y="150" /><text font-size="8px" x="901" y="163">14</text><rect fill="#e0f7fa" height="40" stroke="gray" stroke-width="0.8" width="53" x="951" y="150" /><text font-size="8px" x="954" y="163">15
PPI</text><rect fill="#e0f7fa" height="40" stroke="gray" stroke-width="0.8" width="53" x="1004" y="150" /><text font-size="8px" x="1007" y="163">16</text><rect fill="#e0f7fa" height="40" stroke="gray" stroke-width="0.8" width="53" x="1057" y="150" /><text font-size="8px" x="1060" y="163">17</text><rect fill="#e0f7fa" height="40" stroke="gray" stroke-width="0.8" width="53" x="1110" y="150" /><text font-size="8px" x="1113" y="163">18</text><rect fill="#e0f7fa" height="40" stroke="gray" stroke-width="0.8" width="53" x="792" y="190" /><text font-size="8px" x="795" y="203">19</text><rect fill="#e0f7fa" height="40" stroke="gray" stroke-width="0.8" width="53" x="845" y="190" /><text font-size="8px" x="848" y="203">20</text><rect fill="#e0f7fa" height="40" stroke="gray" stroke-width="0.8" width="53" x="898" y="190" /><text font-size="8px" x="901" y="203">21</text><rect fill="#e0f7fa" height="40" stroke="gray" stroke-width="0.8" width="53" x="951" y="190" /><text font-size="8px" x="954" y="203">22</text><rect fill="#e0f7fa" height="40" stroke="gray" stroke-width="0.8" width="53" x="1004" y="190" /><text font-size="8px" x="1007" y="203">23</text><rect fill="#e0f7fa" height="40" stroke="gray" stroke-width="0.8" width="53" x="1057" y="190" /><text font-size="8px" x="1060" y="203">24</text><rect fill="#e0f7fa" height="40" stroke="gray" stroke-width="0.8" width="53" x="1110" y="190" /><text font-size="8px" x="1113" y="203">25</text><rect fill="#e0f7fa" height="40" stroke="gray" stroke-width="0.8" width="53" x="792" y="230" /><text font-size="8px" x="795" y="243">26
HLD</text><rect fill="#e0f7fa" height="40" stroke="gray" stroke-width="0.8" width="53" x="845" y="230" /><text font-size="8px" x="848" y="243">27</text><rect fill="#e0f7fa" height="40" stroke="gray" stroke-width="0.8" width="53" x="898" y="230" /><text font-size="8px" x="901" y="243">28</text><rect fill="#e0f7fa" height="40" stroke="gray" stroke-width="0.8" width="53" x="951" y="230" /><text font-size="8px" x="954" y="243">29</text><rect fill="#e0f7fa" height="40" stroke="gray" stroke-width="0.8" width="53" x="1004" y="230" /><text font-size="8px" x="1007" y="243">30</text><rect fill="#e0f7fa" height="40" stroke="gray" stroke-width="0.8" width="53" x="1057" y="230" /><text font-size="8px" x="1060" y="243">31</text><text font-size="13px" font-weight="bold" x="0" y="380">June 2025</text><text font-size="9px" font-weight="bold" x="3" y="405">M</text><text font-size="9px" font-weight="bold" x="56" y="405">T</text><text font-size="9px" font-weight="bold" x="109" y="405">W</text><text font-size="9px" font-weight="bold" x="162" y="405">Th</text><text font-size="9px" font-weight="bold" x="215" y="405">F</text><text font-size="9px" font-weight="bold" x="268" y="405">Sa</text><text font-size="9px" font-weight="bold" x="321" y="405">Su</text><rect fill="#e0f7fa" height="40" stroke="gray" stroke-width="0.8" width="53" x="318" y="435" /><text font-size="8px" x="321" y="448">1</text><rect fill="#e0f7fa" height="40" stroke="gray" stroke-width="0.8" width="53" x="0" y="475" /><text font-size="8px" x="3" y="488">2</text><rect fill="#e0f7fa" height="40" stroke="gray" stroke-width="0.8" width="53" x="53" y="475" /><text font-size="8px" x="56" y="488">3</text><rect fill="#e0f7fa" height="40" stroke="gray" stroke-width="0.8" width="53" x="106" y="475" /><text font-size="8px" x="109" y="488">4</text><rect fill="#e0f7fa" height="40" stroke="gray" stroke-width="0.8" width="53" x="159" y="475" /><text font-size="8px" x="162" y="488">5</text><rect fill="#e0f7fa" height="40" stroke="gray" stroke-width="0.8" width="53" x="212" y="475" /><text font-size="8px" x="215" y="488">6</text><rect fill="#e0f7fa" height="40" stroke="gray" stroke-width="0.8" width="53" x="265" y="475" /><text font-size="8px" x="268" y="488">7</text><rect fill="#e0f7fa" height="40" stroke="gray" stroke-width="0.8" width="53" x="318" y="475" /><text font-size="8px" x="321" y="488">8</text><rect fill="#e0f7fa" height="40" stroke="gray" stroke-width="0.8" width="53" x="0" y="515" /><text font-size="8px" x="3" y="528">9</text><rect fill="#e0f7fa" height="40" stroke="gray" stroke-width="0.8" width="53" x="53" y="515" /><text font-size="8px" x="56" y="528">10</text><rect fill="#e0f7fa" height="40" stroke="gray" stroke-width="0.8" width="53" x="106" y="515" /><text font-size="8px" x="109" y="528">11
CPI</text><rect fill="#e0f7fa" height="40" stroke="gray" stroke-width="0.8" width="53" x="159" y="515" /><text font-size="8px" x="162" y="528">12
PPI</text><rect fill="#e0f7fa" height="40" stroke="gray" stroke-width="0.8" width="53" x="212" y="515" /><text font-size="8px" x="215" y="528">13</text><rect fill="#e0f7fa" height="40" stroke="gray" stroke-width="0.8" width="53" x="265" y="515" /><text font-size="8px" x="268" y="528">14</text><rect fill="#e0f7fa" height="40" stroke="gray" stroke-width="0.8" width="53" x="318" y="515" /><text font-size="8px" x="321" y="528">15</text><rect fill="#e0f7fa" height="40" stroke="gray" stroke-width="0.8" width="53" x="0" y="555" /><text font-size="8px" x="3" y="568">16</text><rect fill="#e0f7fa" height="40" stroke="gray" stroke-width="0.8" width="53" x="53" y="555" /><text font-size="8px" x="56" y="568">17</text><rect fill="#e0f7fa" height="40" stroke="gray" stroke-width="0.8" width="53" x="106" y="555" /><text font-size="8px" x="109" y="568">18</text><rect fill="#e0f7fa" height="40" stroke="gray" stroke-width="0.8" width="53" x="159" y="555" /><text font-size="8px" x="162" y="568">19</text><rect fill="#e0f7fa" height="40" stroke="gray" stroke-width="0.8" width="53" x="212" y="555" /><text font-size="8px" x="215" y="568">20</text><rect fill="#e0f7fa" height="40" stroke="gray" stroke-width="0.8" width="53" x="265" y="555" /><text font-size="8px" x="268" y="568">21</text><rect fill="#e0f7fa" height="40" stroke="gray" stroke-width="0.8" width="53" x="318" y="555" /><text font-size="8px" x="321" y="568">22</text><rect fill="#e0f7fa" height="40" stroke="gray" stroke-width="0.8" width="53" x="0" y="595" /><text font-size="8px" x="3" y="608">23</text><rect fill="#e0f7fa" height="40" stroke="gray" stroke-width="0.8" width="53" x="53" y="595" /><text font-size="8px" x="56" y="608">24</text><rect fill="#e0f7fa" height="40" stroke="gray" stroke-width="0.8" width="53" x="106" y="595" /><text font-size="8px" x="109" y="608">25</text><rect fill="#e0f7fa" height="40" stroke="gray" stroke-width="0.8" width="53" x="159" y="595" /><text font-size="8px" x="162" y="608">26</text><rect fill="#e0f7fa" height="40" stroke="gray" stroke-width="0.8" width="53" x="212" y="595" /><text font-size="8px" x="215" y="608">27</text><rect fill="#e0f7fa" height="40" stroke="gray" stroke-width="0.8" width="53" x="265" y="595" /><text font-size="8px" x="268" y="608">28</text><rect fill="#e0f7fa" height="40" stroke="gray" stroke-width="0.8" width="53" x="318" y="595" /><text font-size="8px" x="321" y="608">29</text><rect fill="#e0f7fa" height="40" stroke="gray" stroke-width="0.8" width="53" x="0" y="635" /><text font-size="8px" x="3" y="648">30</text><text font-size="13px" font-weight="bold" x="396" y="380">July 2025</text><text font-size="9px" font-weight="bold" x="399" y="405">M</text><text font-size="9px" font-weight="bold" x="452" y="405">T</text><text font-size="9px" font-weight="bold" x="505" y="405">W</text><text font-size="9px" font-weight="bold" x="558" y="405">Th</text><text font-size="9px" font-weight="bold" x="611" y="405">F</text><text font-size="9px" font-weight="bold" x="664" y="405">Sa</text><text font-size="9px" font-weight="bold" x="717" y="405">Su</text><rect fill="#e0f7fa" height="40" stroke="gray" stroke-width="0.8" width="53" x="449" y="435" /><text font-size="8px" x="452" y="448">1</text><rect fill="#e0f7fa" height="40" stroke="gray" stroke-width="0.8" width="53" x="502" y="435" /><text font-size="8px" x="505" y="448">2</text><rect fill="#e0f7fa" height="40" stroke="gray" stroke-width="0.8" width="53" x="555" y="435" /><text font-size="8px" x="558" y="448">3</text><rect fill="#e0f7fa" height="40" stroke="gray" stroke-width="0.8" width="53" x="608" y="435" /><text font-size="8px" x="611" y="448">4
HLD</text><rect fill="#e0f7fa" height="40" stroke="gray" stroke-width="0.8" width="53" x="661" y="435" /><text font-size="8px" x="664" y="448">5</text><rect fill="#e0f7fa" height="40" stroke="gray" stroke-width="0.8" width="53" x="714" y="435" /><text font-size="8px" x="717" y="448">6</text><rect fill="#e0f7fa" height="40" stroke="gray" stroke-width="0.8" width="53" x="396" y="475" /><text font-size="8px" x="399" y="488">7</text><rect fill="#e0f7fa" height="40" stroke="gray" stroke-width="0.8" width="53" x="449" y="475" /><text font-size="8px" x="452" y="488">8</text><rect fill="#e0f7fa" height="40" stroke="gray" stroke-width="0.8" width="53" x="502" y="475" /><text font-size="8px" x="505" y="488">9</text><rect fill="#e0f7fa" height="40" stroke="gray" stroke-width="0.8" width="53" x="555" y="475" /><text font-size="8px" x="558" y="488">10</text><rect fill="#e0f7fa" height="40" stroke="gray" stroke-width="0.8" width="53" x="608" y="475" /><text font-size="8px" x="611" y="488">11</text><rect fill="#e0f7fa" height="40" stroke="gray" stroke-width="0.8" width="53" x="661" y="475" /><text font-size="8px" x="664" y="488">12</text><rect fill="#e0f7fa" height="40" stroke="gray" stroke-width="0.8" width="53" x="714" y="475" /><text font-size="8px" x="717" y="488">13</text><rect fill="#e0f7fa" height="40" stroke="gray" stroke-width="0.8" width="53" x="396" y="515" /><text font-size="8px" x="399" y="528">14</text><rect fill="#e0f7fa" height="40" stroke="gray" stroke-width="0.8" width="53" x="449" y="515" /><text font-size="8px" x="452" y="528">15
CPI</text><rect fill="#e0f7fa" height="40" stroke="gray" stroke-width="0.8" width="53" x="502" y="515" /><text font-size="8px" x="505" y="528">16
PPI</text><rect fill="#e0f7fa" height="40" stroke="gray" stroke-width="0.8" width="53" x="555" y="515" /><text font-size="8px" x="558" y="528">17</text><rect fill="#e0f7fa" height="40" stroke="gray" stroke-width="0.8" width="53" x="608" y="515" /><text font-size="8px" x="611" y="528">18</text><rect fill="#e0f7fa" height="40" stroke="gray" stroke-width="0.8" width="53" x="661" y="515" /><text font-size="8px" x="664" y="528">19</text><rect fill="#e0f7fa" height="40" stroke="gray" stroke-width="0.8" width="53" x="714" y="515" /><text font-size="8px" x="717" y="528">20</text><rect fill="#e0f7fa" height="40" stroke="gray" stroke-width="0.8" width="53" x="396" y="555" /><text font-size="8px" x="399" y="568">21</text><rect fill="#e0f7fa" height="40" stroke="gray" stroke-width="0.8" width="53" x="449" y="555" /><text font-size="8px" x="452" y="568">22</text><rect fill="#e0f7fa" height="40" stroke="gray" stroke-width="0.8" width="53" x="502" y="555" /><text font-size="8px" x="505" y="568">23</text><rect fill="#e0f7fa" height="40" stroke="gray" stroke-width="0.8" width="53" x="555" y="555" /><text font-size="8px" x="558" y="568">24</text><rect fill="#e0f7fa" height="40" stroke="gray" stroke-width="0.8" width="53" x="608" y="555" /><text font-size="8px" x="611" y="568">25</text><rect fill="#e0f7fa" height="40" stroke="gray" stroke-width="0.8" width="53" x="661" y="555" /><text font-size="8px" x="664" y="568">26</text><rect fill="#e0f7fa" height="40" stroke="gray" stroke-width="0.8" width="53" x="714" y="555" /><text font-size="8px" x="717" y="568">27</text><rect fill="#e0f7fa" height="40" stroke="gray" stroke-width="0.8" width="53" x="396" y="595" /><text font-size="8px" x="399" y="608">28</text><rect fill="#e0f7fa" height="40" stroke="gray" stroke-width="0.8" width="53" x="449" y="595" /><text font-size="8px" x="452" y="608">29</text><rect fill="#e0f7fa" height="40" stroke="gray" stroke-width="0.8" width="53" x="502" y="595" /><text font-size="8px" x="505" y="608">30</text><rect fill="#e0f7fa" height="40" stroke="gray" stroke-width="0.8" width="53" x="555" y="595" /><text font-size="8px" x="558" y="608">31</text><text font-size="13px" font-weight="bold" x="792" y="380">August 2025</text><text font-size="9px" font-weight="bold" x="795" y="405">M</text><text font-size="9px" font-weight="bold" x="848" y="405">T</text><text font-size="9px" font-weight="bold" x="901" y="405">W</text><text font-size="9px" font-weight="bold" x="954" y="405">Th</text><text font-size="9px" font-weight="bold" x="1007" y="405">F</text><text font-size="9px" font-weight="bold" x="1060" y="405">Sa</text><text font-size="9px" font-weight="bold" x="1113" y="405">Su</text><rect fill="#e0f7fa" height="40" stroke="gray" stroke-width="0.8" width="53" x="1004" y="435" /><text font-size="8px" x="1007" y="448">1</text><rect fill="#e0f7fa" height="40" stroke="gray" stroke-width="0.8" width="53" x="1057" y="435" /><text font-size="8px" x="1060" y="448">2</text><rect fill="#e0f7fa" height="40" stroke="gray" stroke-width="0.8" width="53" x="1110" y="435" /><text font-size="8px" x="1113" y="448">3</text><rect fill="#e0f7fa" height="40" stroke="gray" stroke-width="0.8" width="53" x="792" y="475" /><text font-size="8px" x="795" y="488">4</text><rect fill="#e0f7fa" height="40" stroke="gray" stroke-width="0.8" width="53" x="845" y="475" /><text font-size="8px" x="848" y="488">5</text><rect fill="#e0f7fa" height="40" stroke="gray" stroke-width="0.8" width="53" x="898" y="475" /><text font-size="8px" x="901" y="488">6</text><rect fill="#e0f7fa" height="40" stroke="gray" stroke-width="0.8" width="53" x="951" y="475" /><text font-size="8px" x="954" y="488">7</text><rect fill="#e0f7fa" height="40" stroke="gray" stroke-width="0.8" width="53" x="1004" y="475" /><text font-size="8px" x="1007" y="488">8</text><rect fill="#e0f7fa" height="40" stroke="gray" stroke-width="0.8" width="53" x="1057" y="475" /><text font-size="8px" x="1060" y="488">9</text><rect fill="#e0f7fa" height="40" stroke="gray" stroke-width="0.8" width="53" x="1110" y="475" /><text font-size="8px" x="1113" y="488">10</text><rect fill="#e0f7fa" height="40" stroke="gray" stroke-width="0.8" width="53" x="792" y="515" /><text font-size="8px" x="795" y="528">11</text><rect fill="#e0f7fa" height="40" stroke="gray" stroke-width="0.8" width="53" x="845" y="515" /><text font-size="8px" x="848" y="528">12
CPI</text><rect fill="#e0f7fa" height="40" stroke="gray" stroke-width="0.8" width="53" x="898" y="515" /><text font-size="8px" x="901" y="528">13</text><rect fill="#e0f7fa" height="40" stroke="gray" stroke-width="0.8" width="53" x="951" y="515" /><text font-size="8px" x="954" y="528">14
PPI</text><rect fill="#e0f7fa" height="40" stroke="gray" stroke-width="0.8" width="53" x="1004" y="515" /><text font-size="8px" x="1007" y="528">15</text><rect fill="#e0f7fa" height="40" stroke="gray" stroke-width="0.8" width="53" x="1057" y="515" /><text font-size="8px" x="1060" y="528">16</text><rect fill="#e0f7fa" height="40" stroke="gray" stroke-width="0.8" width="53" x="1110" y="515" /><text font-size="8px" x="1113" y="528">17</text><rect fill="#e0f7fa" height="40" stroke="gray" stroke-width="0.8" width="53" x="792" y="555" /><text font-size="8px" x="795" y="568">18</text><rect fill="#e0f7fa" height="40" stroke="gray" stroke-width="0.8" width="53" x="845" y="555" /><text font-size="8px" x="848" y="568">19</text><rect fill="#e0f7fa" height="40" stroke="gray" stroke-width="0.8" width="53" x="898" y="555" /><text font-size="8px" x="901" y="568">20</text><rect fill="#e0f7fa" height="40" stroke="gray" stroke-width="0.8" width="53" x="951" y="555" /><text font-size="8px" x="954" y="568">21</text><rect fill="#e0f7fa" height="40" stroke="gray" stroke-width="0.8" width="53" x="1004" y="555" /><text font-size="8px" x="1007" y="568">22</text><rect fill="#e0f7fa" height="40" stroke="gray" stroke-width="0.8" width="53" x="1057" y="555" /><text font-size="8px" x="1060" y="568">23</text><rect fill="#e0f7fa" height="40" stroke="gray" stroke-width="0.8" width="53" x="1110" y="555" /><text font-size="8px" x="1113" y="568">24</text><rect fill="#e0f7fa" height="40" stroke="gray" stroke-width="0.8" width="53" x="792" y="595" /><text font-size="8px" x="795" y="608">25</text><rect fill="#e0f7fa" height="40" stroke="gray" stroke-width="0.8" width="53" x="845" y="595" /><text font-size="8px" x="848" y="608">26</text><rect fill="#e0f7fa" height="40" stroke="gray" stroke-width="0.8" width="53" x="898" y="595" /><text font-size="8px" x="901" y="608">27</text><rect fill="#e0f7fa" height="40" stroke="gray" stroke-width="0.8" width="53" x="951" y="595" /><text font-size="8px" x="954" y="608">28</text><rect fill="#e0f7fa" height="40" stroke="gray" stroke-width="0.8" width="53" x="1004" y="595" /><text font-size="8px" x="1007" y="608">29</text><rect fill="#e0f7fa" height="40" stroke="gray" stroke-width="0.8" width="53" x="1057" y="595" /><text font-size="8px" x="1060" y="608">30</text><rect fill="#e0f7fa" height="40" stroke="gray" stroke-width="0.8" width="53" x="1110" y="595" /><text font-size="8px" x="1113" y="608">31</text></svg>